:SAMPLES-PER-SECOND 30
:FULLY-SPECIFIED
:DEGREES
298
root  -7.39132 34.8543 -28.6063 -171.374 59.4192 179.354
RightUpLeg  -4.52152 -15.7727 -1.01662
RightLeg  0.541659 -3.29335 0.181143
RightFoot  6.38226 0.042494 -0.1931
RightToes  -24.785 -0.108438 -0.215124
Spine  -2.24707 -0.106872 -0.657683
Spine1  -4.55811 -0.146179 -0.558017
HEad  -66.7386 -9.405 3.33223
LeftShoulder1  -1.94126e-019 -3.10601e-018 -2.51263e-017
LeftArm  -1.1696 23.7846 -78.7995
LeftForeArm  15.9941 -47.2269 -10.9382
LeftHand  -0.199908 0.37156 4.6257
RightShoulder  -4.96962e-017 0 -2.36833e-017
RightArm  0.831894 -24.798 72.5804
RightForeArm  35.7386 63.2909 19.0181
RightHand  -0.0587918 -4.46059 -4.78699
LeftUpLeg  -3.76115 9.93513 -0.471095
LeftLeg  1.00622 19.8753 -0.910354
LeftFoot  4.9634 -0.0744809 1.95447
LeftToes  -11.2081 2.25955e-006 -3.67304e-008
299
root  -7.36605 34.8799 -28.5698 -171.435 59.1053 179.346
RightUpLeg  -4.06934 -15.9475 -0.947334
RightLeg  -0.159971 -3.44114 0.231332
RightFoot  6.64967 0.0453284 -0.229842
RightToes  -24.6297 -0.107525 -0.214008
Spine  -2.17732 -0.202339 -0.81147
Spine1  -4.38278 -0.39761 -0.821612
HEad  -66.1535 -9.4813 2.79019
LeftShoulder1  -1.94126e-019 -3.10601e-018 -2.51263e-017
LeftArm  0.896567 28.041 -76.1003
LeftForeArm  21.129 -60.2883 -18.0424
LeftHand  -0.174581 0.569945 4.17759
RightShoulder  -4.96962e-017 0 -2.36833e-017
RightArm  2.01733 -24.341 69.9618
RightForeArm  63.4762 77.6135 49.313
RightHand  -0.0200687 -5.51452 -4.92778
LeftUpLeg  -3.40297 9.65996 -0.371748
LeftLeg  0.274246 19.8316 -1.15729
LeftFoot  5.41624 -0.0851619 2.11526
LeftToes  -11.3857 2.25955e-006 -3.67304e-008
300
root  -7.3433 34.9038 -28.5244 -171.471 58.828 179.351
RightUpLeg  -3.76972 -16.0782 -0.850547
RightLeg  -0.630514 -3.61077 0.272371
RightFoot  6.84772 0.048216 -0.267894
RightToes  -24.3139 -0.10679 -0.212698
Spine  -2.16779 -0.160302 -1.00608
Spine1  -4.30476 -0.377251 -1.17635
HEad  -65.1033 -10.0107 2.32305
LeftShoulder1  -1.94126e-019 -3.10601e-018 -2.51263e-017
LeftArm  3.49887 31.2122 -73.0807
LeftForeArm  36.3874 -72.7824 -35.0141
LeftHand  -0.154174 0.128345 3.41886
RightShoulder  -4.96962e-017 0 -2.36833e-017
RightArm  0.870439 -22.1037 68.1226
RightForeArm  141.622 77.6452 129.835
RightHand  0.0263717 -6.59598 -5.41211
LeftUpLeg  -3.17239 9.38658 -0.263003
LeftLeg  -0.232599 19.8329 -1.32988
LeftFoot  5.82061 -0.095085 2.26252
LeftToes  -11.6855 2.25955e-006 -3.67304e-008
301
root  -7.34309 34.9192 -28.4705 -171.564 58.3309 179.378
RightUpLeg  -3.64628 -16.4311 -0.76314
RightLeg  -0.602855 -3.71338 0.278321
RightFoot  6.91396 0.0501322 -0.292556
RightToes  -24.4276 -0.106187 -0.211072
Spine  -2.18874 0.000918075 -1.21481
Spine1  -4.27461 -0.139779 -1.54535
HEad  -63.0784 -11.0229 1.04402
LeftShoulder1  -1.94126e-019 -3.10601e-018 -2.51263e-017
LeftArm  5.78419 31.9494 -70.8685
LeftForeArm  71.3801 -79.3309 -73.0988
LeftHand  -0.157001 -0.918457 2.99966
RightShoulder  -4.96962e-017 0 -2.36833e-017
RightArm  -2.01112 -17.3568 67.0611
RightForeArm  168.434 67.7262 155.946
RightHand  0.0394874 -6.51596 -6.93031
LeftUpLeg  -3.20497 8.79106 -0.135673
LeftLeg  -0.142352 19.943 -1.30606
LeftFoot  5.98822 -0.100246 2.33433
LeftToes  -11.8484 2.25955e-006 -3.67304e-008
302
root  -7.37343 34.9352 -28.3974 -171.611 57.6936 179.451
RightUpLeg  -3.73419 -16.7163 -0.627069
RightLeg  -0.240087 -4.04526 0.277592
RightFoot  6.79478 0.0530622 -0.332153
RightToes  -24.1086 -0.10564 -0.209008
Spine  -2.22451 0.1342 -1.41982
Spine1  -4.26615 0.0325786 -1.9061
HEad  -61.1779 -11.7586 -0.435539
LeftShoulder1  -1.94126e-019 -3.10601e-018 -2.51263e-017
LeftArm  7.76651 30.5005 -69.7997
LeftForeArm  109.458 -79.0266 -111.431
LeftHand  -0.232669 -2.09208 3.79988
RightShoulder  -4.96962e-017 0 -2.36833e-017
RightArm  -5.14494 -9.63637 66.6776
RightForeArm  177.776 61.7946 162.24
RightHand  0.0260679 -5.84703 -11.6685
LeftUpLeg  -3.60572 8.01819 0.0131578
LeftLeg  0.547686 20.1258 -1.07942
LeftFoot  5.88166 -0.0994539 2.31254
LeftToes  -11.7749 2.25955e-006 -3.67304e-008
303
root  -7.41014 34.9456 -28.3261 -171.749 57.2291 179.469
RightUpLeg  -3.76559 -16.8619 -0.552332
RightLeg  0.0404313 -4.32062 0.275341
RightFoot  6.69482 0.0552819 -0.361987
RightToes  -23.6785 -0.105145 -0.20572
Spine  -2.19494 0.240567 -1.63693
Spine1  -4.15516 0.194076 -2.31384
HEad  -59.8542 -11.9078 -1.44489
LeftShoulder1  -1.94126e-019 -3.10601e-018 -2.51263e-017
LeftArm  9.43117 27.8078 -69.7085
LeftForeArm  127.531 -77.3822 -127.106
LeftHand  -0.431827 -2.91965 6.26527
RightShoulder  -4.96962e-017 0 -2.36833e-017
RightArm  -7.27395 0.0902929 66.9904
RightForeArm  -179.115 62.9151 161.707
RightHand  0.126401 -6.1401 -21.0257
LeftUpLeg  -3.88833 7.57612 0.117899
LeftLeg  1.10573 20.148 -0.888
LeftFoot  5.81841 -0.0985495 2.28834
LeftToes  -11.7948 2.25955e-006 -3.67304e-008
304
root  -7.43343 34.9476 -28.2507 -171.79 57.2691 179.571
RightUpLeg  -3.76933 -16.8447 -0.429687
RightLeg  0.0981896 -4.28183 0.268558
RightFoot  6.71726 0.0553348 -0.361186
RightToes  -23.5648 -0.1047 -0.204083
Spine  -2.17411 0.543443 -1.82741
Spine1  -4.09853 0.794194 -2.70319
HEad  -59.3834 -11.8433 -1.73229
LeftShoulder1  -1.94126e-019 -3.10601e-018 -2.51263e-017
LeftArm  10.8624 24.3507 -70.4119
LeftForeArm  130.793 -77.4034 -127.853
LeftHand  -0.616166 -3.11138 8.65076
RightShoulder  -4.96962e-017 0 -2.36833e-017
RightArm  -8.61157 10.0493 67.6625
RightForeArm  179.731 70.8809 153.305
RightHand  0.208713 -6.14447 -31.2637
LeftUpLeg  -3.99608 7.77887 0.258011
LeftLeg  1.39802 20.0113 -0.78208
LeftFoot  5.77268 -0.0970765 2.255
LeftToes  -11.8393 2.25955e-006 -3.67304e-008
